<?xml version="1.0" encoding="UTF-8"?><svg xmlns="http://www.w3.org/2000/svg" width="374.89" height="473.91" xmlns:xlink="http://www.w3.org/1999/xlink" viewBox="0 0 374.89 473.91"><defs><style>.h{fill:none;stroke-width:3px;}.h,.i,.j{stroke:#1d1d1b;}.h,.i,.j,.k{stroke-miterlimit:10;}.i{fill:url(#f);}.j{fill:#1d1d1b;stroke-width:2px;}.k{fill:#fcca7d;stroke:#fcca7d;}</style><radialGradient id="f" cx="84.24" cy="413.01" fx="84.24" fy="413.01" r="38.71" gradientTransform="matrix(1, 0, 0, 1, 0, 0)" gradientUnits="userSpaceOnUse"><stop offset="0" stop-color="#fcca7d"/><stop offset=".03" stop-color="#e7b973"/><stop offset=".09" stop-color="#b7935b"/><stop offset=".17" stop-color="#8b7045"/><stop offset=".24" stop-color="#665132"/><stop offset=".33" stop-color="#463822"/><stop offset=".41" stop-color="#2c2316"/><stop offset=".51" stop-color="#18130c"/><stop offset=".62" stop-color="#0a0805"/><stop offset=".76" stop-color="#020101"/><stop offset="1" stop-color="#000"/></radialGradient></defs><g id="a"/><g id="b"/><g id="c"/><g id="d"/><g id="e"><g><rect class="j" x="19.86" y="201.92" width="88.94" height="268.93"/><polygon class="j" points="266 266.06 266 470.85 108.8 470.85 108.8 266.06 127.31 266.06 127.31 291.7 144.07 291.7 144.07 266.06 157.54 266.06 157.54 291.7 174.3 291.7 174.3 266.06 187.41 266.06 187.41 291.7 204.16 291.7 204.16 266.06 215.87 266.06 215.87 291.7 232.63 291.7 232.63 266.06 241.98 266.06 241.98 291.7 258.74 291.7 258.74 266.06 266 266.06"/><rect class="j" x="266" y="107.63" width="88.94" height="363.21"/><polygon class="j" points="369.38 107.63 251.57 107.63 310.48 4.86 369.38 107.63"/><polygon class="j" points="123.24 201.92 5.43 201.92 64.34 99.14 123.24 201.92"/><rect class="k" x="47.91" y="233.52" width="32.85" height="40.98"/><path class="i" d="M127.74,420.63v28.26H40.74v-28.26c0-20.82,14.62-38.21,34.15-42.49,3.01-.66,6.14-1.01,9.35-1.01,2.87,0,5.67,.28,8.38,.81,5.69,1.11,10.98,3.33,15.64,6.43,2.43,1.6,4.68,3.45,6.73,5.51,7.87,7.87,12.74,18.75,12.74,30.76Z"/><rect class="k" x="294.05" y="142.2" width="32.85" height="40.98"/><line class="h" x1="58.13" y1="385.84" x2="58.13" y2="448.89"/><line class="h" x1="74.89" y1="377.47" x2="74.89" y2="448.89"/><line class="h" x1="92.62" y1="377.47" x2="92.62" y2="448.89"/><line class="h" x1="108.26" y1="377.47" x2="108.26" y2="448.89"/><line class="h" x1="58.13" y1="230.35" x2="58.13" y2="275.38"/><line class="h" x1="69.61" y1="230.35" x2="69.61" y2="275.38"/><line class="h" x1="47.16" y1="249.01" x2="83.18" y2="249.01"/><line class="h" x1="305.01" y1="141.09" x2="305.01" y2="186.12"/><line class="h" x1="316.49" y1="140.18" x2="316.49" y2="185.21"/><line class="h" x1="292.46" y1="160.86" x2="328.48" y2="160.86"/></g></g><g id="g"/></svg>