<?xml version="1.0" encoding="UTF-8"?><svg xmlns="http://www.w3.org/2000/svg" width="805.29" height="772.92" xmlns:xlink="http://www.w3.org/1999/xlink" viewBox="0 0 805.29 772.92"><defs><style>.m{fill:url(#g);}.n{fill:url(#f);}.o{fill:url(#i);}.p{fill:url(#h);}.q{fill:#937e67;}.r{fill:#1d1d1b;}.s{fill:#2d130c;}.t{fill:url(#j);}.t,.u,.v,.w,.x,.y,.a`{stroke-miterlimit:10;}.t,.u,.x,.a`{stroke:#000;}.u{fill:url(#k);}.v,.w{stroke-linecap:round;}.v,.w,.x,.y,.a`{fill:none;}.v,.y{stroke:#8b6008;stroke-width:7px;}.w{stroke:#5f4000;stroke-width:2px;}.a`{stroke-width:.5px;}</style><linearGradient id="f" x1="497.07" y1="472.27" x2="590.67" y2="472.27" gradientTransform="matrix(1, 0, 0, 1, 0, 0)" gradientUnits="userSpaceOnUse"><stop offset="0" stop-color="#732706"/><stop offset=".19" stop-color="#6d2607"/><stop offset=".43" stop-color="#5c230a"/><stop offset=".7" stop-color="#411e10"/><stop offset=".84" stop-color="#321c14"/></linearGradient><linearGradient id="g" x1="769.06" y1="-1585.3" x2="837.93" y2="-1585.3" gradientTransform="translate(-672.73 1877.75) rotate(14.7)" gradientUnits="userSpaceOnUse"><stop offset=".09" stop-color="#732706"/><stop offset=".19" stop-color="#541f08"/><stop offset=".3" stop-color="#3b190a"/><stop offset=".41" stop-color="#27140c"/><stop offset=".55" stop-color="#19110d"/><stop offset=".71" stop-color="#110f0d"/><stop offset="1" stop-color="#0f0f0e"/></linearGradient><linearGradient id="h" x1="830.68" y1="-1589.28" x2="867.92" y2="-1589.28" gradientTransform="translate(-672.73 1877.75) rotate(14.7)" gradientUnits="userSpaceOnUse"><stop offset="0" stop-color="#732706"/><stop offset="0" stop-color="#541f08"/><stop offset="0" stop-color="#3b190a"/><stop offset="0" stop-color="#27140c"/><stop offset="0" stop-color="#19110d"/><stop offset="0" stop-color="#110f0d"/><stop offset="0" stop-color="#0f0f0e"/></linearGradient><linearGradient id="i" x1="748.74" y1="-1596.73" x2="781.2" y2="-1596.73" xlink:href="#h"/><radialGradient id="j" cx="804.02" cy="-1666.62" fx="804.02" fy="-1666.62" r="9.69" gradientTransform="translate(-1138.71 -334.31) rotate(90)" gradientUnits="userSpaceOnUse"><stop offset="0" stop-color="#777676"/><stop offset=".05" stop-color="#656464"/><stop offset=".15" stop-color="#464545"/><stop offset=".26" stop-color="#2c2c2c"/><stop offset=".39" stop-color="#181818"/><stop offset=".53" stop-color="#0a0a0a"/><stop offset=".7" stop-color="#020202"/><stop offset="1" stop-color="#000"/></radialGradient><radialGradient id="k" cx="844.91" cy="-1663.52" fx="844.91" fy="-1663.52" r="7.87" gradientTransform="translate(-1096.85 -361.82) rotate(90)" xlink:href="#j"/></defs><g id="a"/><g id="b"/><g id="c"/><g id="d"/><g id="e"><g><polygon points="1.56 756.02 1.56 739.6 412.56 725.71 412.56 756.02 1.56 756.02"/><polygon points="4.09 725.71 4.09 646 372.15 667.47 372.15 703.46 4.09 725.71"/><polygon points="4.09 618.68 4.09 595.32 307.76 582.06 307.13 623.73 4.09 618.68"/><rect x="29.88" y="526.49" width="246.22" height="33.46"/><polygon points="91.42 497.06 91.74 461.07 259.98 494.22 261.56 505.26 91.42 497.06"/><polygon points="138.58 450.3 138.58 424.42 274.32 459.14 273.05 484.39 138.58 450.3"/><polygon points="152.99 418.7 152.99 390.92 307.76 428.17 307.76 448.37 152.99 418.7"/><polygon points="219.28 374.51 219.91 349.26 344.38 390.92 340.59 409.86 219.28 374.51"/><polygon points="270.94 349.26 270.94 342.31 386.48 349.26 386.48 374.03 270.94 349.26"/><polygon points="303.09 329.8 302.15 303.92 435.99 316.54 433.47 346.85 303.09 329.8"/><polygon points="328.71 300.76 328.71 287.5 470.71 289.88 470.71 315.91 328.71 300.76"/><polygon points="350.81 282.45 350.81 254.04 522.48 260.21 522.48 285.61 350.81 282.45"/><polygon points="394.37 247.1 392.47 229.42 552.16 238.11 549.63 255.3 394.37 247.1"/><polygon points="396.23 225.66 394.96 212.4 547.07 214.78 547.07 233.24 396.23 225.66"/><polygon points="377.92 209.24 375.39 192.83 535.07 199.63 535.07 207.35 377.92 209.24"/><polygon points="397.49 120.04 394.96 103.63 498.12 103.8 498.12 106 397.49 120.04"/><polygon points="391.81 187.78 386.48 178.31 530.02 166.8 530.65 195.36 391.81 187.78"/><polygon points="408.22 173.5 403.52 165.29 519.92 130.43 523.71 160.24 408.22 173.5"/><polygon points="333.08 66.73 333.08 60.42 412.87 18.61 421.71 52.21 333.08 66.73"/><polygon points="333.08 66.73 333.08 60.42 412.87 18.61 421.71 52.21 333.08 66.73"/><polygon points="331.93 57.44 324.63 45.9 395.81 11.69 397.43 20.4 331.93 57.44"/><polygon points="376.88 99 373.62 86.59 488.38 65.47 486.8 94.88 376.88 99"/><polygon points="509.79 126.83 510.59 108.01 406.49 126.92 416.23 153.86 509.79 126.83"/><polygon points="449.67 65.47 452.26 54.29 346.83 68.82 352.69 87.73 449.67 65.47"/><polygon points="314.78 44.99 313.47 35.51 377.93 9.99 380.2 15.29 314.78 44.99"/><polygon class="q" points="4.09 738.34 4.09 725.71 372.15 703.46 412.56 725.71 4.09 738.34"/><polygon class="q" points="4.09 642.38 4.09 623.73 310.67 623.73 368.76 665.11 4.09 642.38"/><polygon class="q" points="4.09 595.32 4.09 566.95 278.72 559.95 307.76 582.06 4.09 595.32"/><polygon class="q" points="29.88 526.49 91.42 497.06 264.11 507.79 268.53 526.49 29.88 526.49"/><polygon class="q" points="97.44 461.07 138.58 450.3 273.05 484.39 261.58 494.71 97.44 461.07"/><polygon class="q" points="152.99 390.92 217.27 374.03 341.64 411.76 307.76 428.17 152.99 390.92"/><polygon class="q" points="273.05 342.31 303.09 329.8 403.52 342.31 388.37 349.26 273.05 342.31"/><polygon class="q" points="274.32 459.14 307.76 448.37 152.99 419.65 140.6 424.64 274.32 459.14"/><polygon class="q" points="341.64 390.01 381.24 374.03 250.46 345.15 221.94 349.93 341.64 390.01"/><polygon class="q" points="303.09 303.92 330.55 301.71 470.71 315.91 435.99 316.54 303.09 303.92"/><polygon class="q" points="392.47 229.73 392.47 225.63 548.1 233.24 552.16 238.11 392.47 229.73"/><polygon class="q" points="470.85 290.46 470.71 285.61 350.81 282.45 331.06 287.5 470.85 290.46"/><polygon class="q" points="546.27 214.5 543.93 208.07 395.93 209.03 396.07 212.4 546.27 214.5"/><polygon class="q" points="530.4 166.8 523.71 160.24 408.22 173.5 386.9 178.28 530.4 166.8"/><polygon class="q" points="519.99 130.44 510.59 126.09 416.23 153.86 403.52 165.29 519.99 130.44"/><polygon class="q" points="498.12 103.8 488.38 94.88 392.47 99 395.93 103.63 498.12 103.8"/><polygon class="q" points="452.53 54.29 421.71 52.21 333.08 66.73 346.83 68.82 452.53 54.29"/><polygon class="q" points="486.77 65.73 448.64 65.71 354.12 87.4 373.62 86.59 486.77 65.73"/><polygon class="q" points="535.07 199.63 530.65 195.36 393.78 187.89 375.92 193.26 535.07 199.63"/><polygon class="q" points="394.96 12.09 380.2 14.42 324.63 40.58 325.2 45.62 394.96 12.09"/><polygon class="q" points="510.59 108.01 498.12 106 397.49 120.04 406.54 126.76 510.59 108.01"/><polygon class="q" points="412.73 18.68 397.43 20.4 331.93 57.44 333.08 60.42 412.73 18.68"/><polygon class="q" points="522.15 259.48 522.02 254.63 394.96 248.31 352.07 252.73 522.15 259.48"/></g><g><line class="y" x1="503.72" y1="284.86" x2="504.55" y2="501.4"/><g><path class="s" d="M502.5,642.93c-7.73,2.12-19.51-16.29-26.3-41.12-6.16-22.49-6.11-42.54-.29-47.67,.26,20.07,8.54,36.2,22.15,39.77,2.07,.54,4.16,.77,6.27,.71,6.65,24.63,5.85,46.2-1.84,48.31Z"/><path class="n" d="M589.2,484.16c-5.54,21.11-25.36,34.78-46.81,33.83-3.35-.14-6.73-.65-10.11-1.53-12.89-3.38-23.15-11.68-29.2-22.28-5.69-9.97-7.64-21.97-4.54-33.81,6.4-24.4,31.89-38.87,56.92-32.3,25.03,6.57,40.14,31.68,33.74,56.08Z"/><path class="m" d="M541.01,553.38c-.09,.35-.19,.71-.28,1.05-1.91,6.92-4.56,13.31-7.74,18.94-5.88,10.4-13.57,18.25-21.69,22.26-3.71,1.83-7.52,2.86-11.29,2.97-2.11,.06-4.2-.17-6.27-.71-13.61-3.57-21.89-19.71-22.15-39.77-.08-6.24,.62-12.87,2.17-19.62,.2-.86,.41-1.73,.64-2.6,2.91-11.1,7.74-20.85,13.62-28.43,.78-1.01,1.59-1.99,2.41-2.92,2.04-2.33,4.18-4.39,6.4-6.17,2.04-1.65,4.13-3.05,6.26-4.19,6.05,10.59,16.31,18.89,29.2,22.28,3.38,.89,6.76,1.39,10.11,1.53,.06,.28,.13,.57,.18,.85,2.03,10.17,1.67,22.21-1.56,34.54Z"/><path class="p" d="M559.54,592.72c-5.33,1.21-13.41-14.35-18.06-34.77-.27-1.18-.52-2.36-.75-3.52,.1-.34,.19-.7,.28-1.05,3.23-12.32,3.59-24.36,1.56-34.54,.05-.01,.1-.03,.16-.04,5.32-1.21,13.41,14.35,18.06,34.76,4.64,20.41,4.09,37.95-1.24,39.16Z"/><path class="o" d="M496.78,498.4c-2.26,1.92-4.41,3.92-6.36,6.15-.82,.93-1.63,1.91-2.41,2.92-5.87,7.58-10.71,17.33-13.62,28.43-.23,.87-.44,1.74-.64,2.6-9.43,13.49-19.08,21.98-22.88,19.63-4.38-2.71,.7-18.83,11.33-35.98,4.18-6.75,8.88-13.31,14.42-19.02,2.77-2.85,5.44-5.95,9.46-6.9,3.31-.79,8.18-.41,10.7,2.17Z"/><path class="s" d="M530.04,649.12c-7.38,.76-15.49-19.39-18.1-44.99-.3-2.89-.51-5.74-.64-8.5,8.12-4.01,15.81-11.86,21.69-22.26,2.55,7.65,4.59,17.36,5.68,28.02,2.62,25.6-1.24,46.97-8.62,47.73Z"/><path class="x" d="M497.49,477.78c3.06,2.18,6.7,5.13,9.44,7.7,2.63,2.47,5.12,5.11,7.97,7.33,4.28,3.33,9.26,5.62,14.19,7.87,3.33,1.52,6.67,3.05,10.12,4.29,11.09,3.96,23.68,4.78,35.2,2.35"/><ellipse class="t" cx="527.9" cy="469.72" rx="8.24" ry="10.94" transform="translate(-60.4 861.14) rotate(-75.3)"/><ellipse class="u" cx="566.66" cy="483.09" rx="7.49" ry="8.24" transform="translate(-44.41 908.61) rotate(-75.3)"/><ellipse cx="542.18" cy="492.5" rx="1.63" ry=".92" transform="translate(-71.79 891.96) rotate(-75.3)"/><ellipse cx="546.34" cy="492.94" rx="1.63" ry=".92" transform="translate(-69.11 896.3) rotate(-75.3)"/><ellipse cx="512.04" cy="483.73" rx=".8" ry=".69" transform="translate(-85.79 856.25) rotate(-75.3)"/><ellipse cx="509.88" cy="491.95" rx=".8" ry=".69" transform="translate(-95.35 860.3) rotate(-75.3)"/><ellipse cx="521.99" cy="491.62" rx=".8" ry="1.06" transform="translate(-86.01 871.77) rotate(-75.3)"/><ellipse cx="518.42" cy="501.06" rx="1.06" ry=".8" transform="translate(-149.28 229.04) rotate(-21.86)"/><ellipse cx="528.92" cy="494.76" rx=".96" ry=".69" transform="translate(-188.88 591.17) rotate(-50.74)"/><ellipse cx="536.49" cy="507.63" rx=".8" ry=".69" transform="translate(-90.67 897.74) rotate(-75.3)"/><ellipse cx="537.95" cy="501.21" rx=".69" ry=".8" transform="translate(-113.19 159.71) rotate(-15.3)"/><ellipse cx="542.87" cy="510.94" rx=".69" ry=".8" transform="translate(-115.58 161.35) rotate(-15.3)"/><circle cx="545.3" cy="503.21" r=".48"/><ellipse cx="551.99" cy="505.33" rx=".38" ry=".52" transform="translate(-179.55 347.52) rotate(-30.3)"/><circle cx="552.95" cy="512.3" r=".38"/><circle cx="548.61" cy="512.42" r=".38"/><ellipse cx="556.33" cy="505.68" rx=".46" ry=".38" transform="translate(-179.13 349.76) rotate(-30.3)"/><ellipse cx="561.25" cy="506.23" rx=".38" ry=".52" transform="translate(-178.74 352.32) rotate(-30.3)"/><path class="a`" d="M512.04,483.97l-2.08,7.94"/><path class="a`" d="M507.31,489.75c1.96-1.52,4.47-2.32,6.94-2.22"/><path class="a`" d="M518.36,489.5c-2.82,1.06-4.9,3.85-5.11,6.85"/><path class="a`" d="M521.51,492.02c-.42,3.05-1.2,6.05-2.32,8.91"/><path class="a`" d="M528.96,495.23c-.27,3.3-.03,6.64,.71,9.87"/><path class="a`" d="M538.02,501.4l-1.34,6.01"/><path class="a`" d="M545.39,503.07c.07,2.73-.92,5.47-2.71,7.53"/><path class="a`" d="M551.66,505.39c1.1,2.12,1.56,4.57,1.3,6.94"/><path class="a`" d="M548.76,512.1l2.75-2.95c1.48-1.58,3.09-3.25,5.21-3.69"/><path class="a`" d="M561.38,505.98l.52,2.74"/><path class="r" d="M558.32,484.96c.87,.33,1.08,.77,1.1,1.19s-.11,.85,.2,1.26c.39,.51,1.42,.94,1.99,1.43,.75,.65,.66,1.36,.24,2.04-.33,.53-.82,1.1,.05,1.57,.35,.18,.88,.33,1.27,.5,1.19,.53,.87,1.26,.11,1.87-.5,.4-1.17,.78-1.36,1.21-.35,.75,.84,1.55,0,2.27,.15-.01,.3-.02,.8-.06-.42-.7-.85-1.42-.51-2.13,.18-.39,.59-.76,.99-1.13l1.46-1.34c.25-.23,.49-.5,.09-.71-.47-.25-1.59-.29-2.25-.49-.85-.26-.67-.7-.38-1.06,.46-.57,1.06-1.15,.9-1.73-.19-.71-1.47-1.35-1.99-2.05-.53-.7-.27-1.44,.12-2.15l-2.83-.49Z"/><path class="r" d="M570.75,488.13c2.56,1.96,2.04,4.35,2.85,6.57,.41,1.1,1.16,2.19,1.26,3.3,.19,2.23-2.24,4.33-3.51,6.49-.12,.21-.23,.43-.02,.62s.88,.3,1.23,.15c.16-.07,.21-.17,.24-.27l.66-1.69c.91-2.33,1.83-4.67,1.96-7.03,0,0,0,.05,.04,.02,.02-.65-1.04-1.21-1.47-1.84-.94-1.36,1.14-2.86,.18-4.22-.25-.35-.7-.68-.97-1.03s-.34-.76,.14-1.07c-.85,.07-1.73,.07-2.59-.01Z"/><path class="r" d="M570.75,490.06c-.87,.33-1.08,.77-1.1,1.19s.11,.85-.2,1.26c-.39,.51-1.42,.94-1.99,1.43-.75,.65-.66,1.36-.24,2.04,.33,.53,.82,1.1-.05,1.57-.35,.18-.88,.33-1.27,.5-1.19,.53-.87,1.26-.11,1.87,.5,.4,1.17,.78,1.36,1.21,.35,.75-.84,1.55,0,2.27-.15-.01-.3-.02-.8-.06,.42-.7,.85-1.42,.51-2.13-.18-.39-.59-.76-.99-1.13l-1.46-1.34c-.25-.23-.49-.5-.09-.71,.47-.25,1.59-.29,2.25-.49,.85-.26,.67-.7,.38-1.06-.46-.57-1.06-1.15-.9-1.73,.19-.71,1.47-1.35,1.99-2.05,.53-.7,.27-1.44-.12-2.15l2.83-.49Z"/><path class="r" d="M537.9,471.6c-.98,.37-1.21,.87-1.24,1.35s.13,.96-.23,1.42c-.44,.57-1.6,1.06-2.25,1.61-.85,.73-.75,1.53-.27,2.29,.37,.59,.92,1.25-.06,1.77-.39,.21-.99,.37-1.43,.57-1.34,.6-.98,1.42-.13,2.1,.56,.45,1.32,.88,1.54,1.36,.39,.85-.95,1.75,0,2.56-.17-.01-.34-.03-.9-.07,.48-.79,.96-1.61,.58-2.4-.21-.44-.66-.86-1.12-1.28l-1.64-1.51c-.28-.26-.55-.56-.1-.8,.53-.28,1.79-.32,2.53-.55,.96-.29,.75-.78,.42-1.19-.52-.64-1.19-1.29-1.02-1.95,.21-.8,1.65-1.52,2.24-2.31,.59-.79,.3-1.62-.13-2.42l3.19-.55Z"/><path class="r" d="M521.85,469.72c-2.89,2.21-2.29,4.91-3.22,7.4-.46,1.24-1.31,2.46-1.42,3.72-.22,2.51,2.52,4.88,3.96,7.32,.14,.23,.26,.49,.02,.7s-1,.34-1.39,.17c-.18-.08-.23-.2-.27-.31l-.74-1.9c-1.03-2.63-2.06-5.26-2.2-7.93,0,0,0,.05-.05,.03-.02-.74,1.17-1.37,1.66-2.07,1.06-1.54-1.29-3.22-.2-4.75,.28-.4,.79-.76,1.1-1.16s.38-.86-.16-1.21c.96,.08,1.95,.08,2.92-.01Z"/><path class="r" d="M524.51,477.36c.98,.37,1.21,.87,1.24,1.35s-.13,.96,.23,1.42c.44,.57,1.6,1.06,2.25,1.61,.85,.73,.75,1.53,.27,2.29-.37,.59-.92,1.25,.06,1.77,.39,.21,.99,.37,1.43,.57,1.34,.6,.98,1.42,.13,2.1-.56,.45-1.32,.88-1.54,1.36-.39,.85,.95,1.75,0,2.56,.17-.01,.34-.03,.9-.07-.48-.79-.96-1.61-.58-2.4,.21-.44,.66-.86,1.12-1.28l1.64-1.51c.28-.26,.55-.56,.1-.8-.53-.28-1.79-.32-2.53-.55-.96-.29-.75-.78-.42-1.19,.52-.64,1.19-1.29,1.02-1.95-.21-.8-1.65-1.52-2.24-2.31-.59-.79-.3-1.62,.13-2.42l-3.19-.55Z"/></g><g><path class="v" d="M548.61,519.94c-6.96,1.11-16.13-.33-25.3-4.48-12.43-5.63-21.29-14.62-23.14-22.51"/><path class="w" d="M498.76,498.35c2.18,.54,4.61-.56,5.84-2.66"/><path class="w" d="M501.03,501.79c2.04,.95,4.63,.33,6.22-1.49"/><path class="w" d="M505.03,506.18c2.04,.95,4.63,.33,6.22-1.49"/><path class="w" d="M510.32,510.05c2.04,.95,4.63,.33,6.22-1.49"/><path class="w" d="M515.13,513.52c1.66,1.03,3.91,.03,5.4-2.4"/><path class="w" d="M520.5,516.99c2.05-.32,3.91-1.9,4.46-3.78"/><path class="w" d="M525.64,519.54c2.18-.54,3.85-2.67,4.01-5.11"/><path class="w" d="M529.65,520.77c2.22-.35,4.06-2.32,4.42-4.74"/><path class="w" d="M536.22,522.96c1.86-1.29,2.69-3.89,2.01-6.23"/><path class="w" d="M541.34,523.58c1.44-1.77,1.55-4.5,.26-6.56"/><path class="w" d="M545.72,523.58c1.44-1.77,1.55-4.5,.26-6.56"/></g></g><g/></g><g id="l"/></svg>